<svg xmlns="http://www.w3.org/2000/svg" viewBox="0 0 48 48" width="48px" height="48px">
  <defs>
    <linearGradient id="tvBody2" x1="10" y1="10" x2="36" y2="36" gradientUnits="userSpaceOnUse">
      <stop offset="0" stop-color="#37474f"/>
      <stop offset="1" stop-color="#1a237e"/>
    </linearGradient>
    <linearGradient id="tvScreen2" x1="14" y1="15" x2="30" y2="28" gradientUnits="userSpaceOnUse">
      <stop offset="0" stop-color="#0d47a1"/>
      <stop offset="1" stop-color="#01579b"/>
    </linearGradient>
    <linearGradient id="tvGlow2" x1="16" y1="17" x2="28" y2="26" gradientUnits="userSpaceOnUse">
      <stop offset="0" stop-color="#64ffda" stop-opacity="0.9"/>
      <stop offset="1" stop-color="#18ffff" stop-opacity="0.15"/>
    </linearGradient>
  </defs>
  <!-- Antenna - cyan/teal accent instead of red to distinguish from CN -->
  <path fill="#26c6da" d="M17.5 8.1a1.4 1.4 0 0 1 2-.1l4.5 4.1a1.4 1.4 0 1 1-1.9 2l-4.5-4.1a1.4 1.4 0 0 1-.1-1.9Zm13-.1a1.4 1.4 0 0 1-.1 2l-4.5 4.1a1.4 1.4 0 1 1-1.9-2L28.5 8a1.4 1.4 0 0 1 2 .1Z"/>
  <!-- Body - dark blue/charcoal instead of warm gold -->
  <path fill="url(#tvBody2)" d="M13.2 12.5h21.6c3 0 5.5 2.5 5.5 5.5v11.7c0 3-2.5 5.5-5.5 5.5H13.2c-3 0-5.5-2.5-5.5-5.5V18c0-3 2.5-5.5 5.5-5.5Z"/>
  <!-- Stand neck -->
  <path fill="#263238" d="M20 35.5h8v2.3a1.6 1.6 0 0 1-1.6 1.6h-4.8a1.6 1.6 0 0 1-1.6-1.6v-2.3Z"/>
  <!-- Stand base -->
  <path fill="#1a237e" d="M14.5 38.3h18.9a1.5 1.5 0 1 1 0 3H14.5a1.5 1.5 0 1 1 0-3Z"/>
  <!-- Screen -->
  <rect x="12.2" y="16.5" width="18.8" height="12.5" rx="1.8" fill="url(#tvScreen2)"/>
  <!-- Globe grid on screen to signal "international" -->
  <circle cx="21.6" cy="22.8" r="5" fill="none" stroke="#64ffda" stroke-width="0.8" opacity="0.7"/>
  <ellipse cx="21.6" cy="22.8" rx="2.5" ry="5" fill="none" stroke="#64ffda" stroke-width="0.7" opacity="0.6"/>
  <line x1="16.6" y1="22.8" x2="26.6" y2="22.8" stroke="#64ffda" stroke-width="0.7" opacity="0.6"/>
  <line x1="21.6" y1="17.8" x2="21.6" y2="27.8" stroke="#64ffda" stroke-width="0.7" opacity="0.6"/>
  <!-- Glow highlight -->
  <path fill="url(#tvGlow2)" d="M13.8 18.1h11.4c.8 0 1.4.6 1.4 1.4v2.8c0 .8-.6 1.4-1.4 1.4H13.8c-.8 0-1.4-.6-1.4-1.4v-2.8c0-.8.6-1.4 1.4-1.4Z" opacity="0.3"/>
  <!-- Indicator LEDs - teal and amber -->
  <circle cx="34.7" cy="20.1" r="1.5" fill="#26c6da"/>
  <circle cx="34.7" cy="24.5" r="1.5" fill="#ffab40"/>
</svg>
